<svg xmlns="http://www.w3.org/2000/svg" version="1.1" xmlns:xlink="http://www.w3.org/1999/xlink" xmlns:svgjs="http://svgjs.com/svgjs" width="512" height="512" x="0" y="0" viewBox="0 0 512 512" style="enable-background:new 0 0 512 512" xml:space="preserve" class=""><g><path fill="#43c43f" d="M93.43 280.9C24.7 330.79 8 478.19 8 478.19S153.31 508 222 458.08s95.66-130 60.14-178.92S162.16 231 93.43 280.9z" data-original="#43c43f" class=""></path><path fill="#282828" d="M101.12 495.08A519.79 519.79 0 0 1 6.37 486a8 8 0 0 1-6.32-8.71c.7-6.16 17.95-151.48 88.7-202.84 34.57-25.09 74.15-39.1 111.44-39.45 38.33-.36 69.71 13.67 88.45 39.47s22.33 60 10.12 96.32c-11.88 35.35-37.47 68.64-72 93.73-33.15 24.05-82.21 30.56-125.64 30.56zm-84.21-23.37c30 5.07 143.94 20.93 200.45-20.08 65.06-47.23 91.25-122.49 58.38-167.78s-112.55-43.71-177.61 3.51c-56.52 41.01-76.77 154.3-81.22 184.35z" data-original="#282828" class=""></path><path fill="#43c43f" d="M63.39 439.52 281.12 278" data-original="#43c43f" class=""></path><path fill="#282828" d="M63.39 447.5a8 8 0 0 1-4.76-14.38l217.74-161.53a8 8 0 1 1 9.5 12.81L68.14 445.93a7.94 7.94 0 0 1-4.75 1.57z" data-original="#282828" class=""></path><path fill="#43c43f" d="M304.65 424.24c42.2 53.83 161.33 62.9 161.33 62.9s19.63-117.85-22.57-171.68-107.47-73.11-145.79-43.07-35.17 98.02 7.03 151.85z" data-original="#43c43f" class=""></path><path fill="#282828" d="M466 495.11h-.61c-5-.38-123.14-10-167-65.93-21.42-27.33-34-59.08-35.4-89.4-1.45-31.33 9.11-57.49 29.73-73.65s48.54-20.17 78.62-11.29c29.11 8.6 56.94 28.39 78.37 55.71 43.86 56 25 173 24.16 177.91a8 8 0 0 1-7.87 6.65zm-155.07-75.79c33.69 43 122 56.1 148.23 59.11 3.33-26.19 11.64-115.13-22-158.06-39.42-50.28-99.8-69-134.6-41.72s-31 90.38 8.38 140.66z" data-original="#282828" class=""></path><path fill="#43c43f" d="M404.47 410.71 296.72 273.27" data-original="#43c43f" class=""></path><path fill="#282828" d="M404.48 418.69a8 8 0 0 1-6.28-3.05L290.45 278.19a8 8 0 0 1 12.55-9.84l107.75 137.44a8 8 0 0 1-6.27 12.89z" data-original="#282828" class=""></path><path fill="#43c43f" d="M483.85 207.28c41.37-54.47 6.22-182.42 6.22-182.42s-132.69.48-174.06 55S278.68 207 325 242.18s117.48 19.57 158.85-34.9z" data-original="#43c43f" class=""></path><path fill="#282828" d="M382.36 268.89c-22.34 0-44-6.58-62.15-20.37-49.77-37.8-54.5-115.65-10.54-173.53C352.92 18 484.47 16.91 490 16.89a8 8 0 0 1 7.69 5.86c1.48 5.38 35.69 132.4-7.56 189.35-27.86 36.78-68.84 56.79-107.77 56.79zM483.9 33c-26.21.93-127.9 7.4-161.53 51.64-38.64 50.88-35.29 118.7 7.48 151.19 15.3 11.62 33.62 17.17 52.59 17.17 34.05 0 70.24-17.86 95.06-50.54C511.1 158.22 490 58.49 483.9 33z" data-original="#282828" class=""></path><path fill="#43c43f" d="M452.76 79.59 326.31 242.97" data-original="#43c43f" class=""></path><path fill="#282828" d="M326.31 250.95a8 8 0 0 1-6.3-12.85L446.45 74.71a8 8 0 1 1 12.61 9.76L332.62 247.86a8 8 0 0 1-6.31 3.09z" data-original="#282828" class=""></path><path fill="#43c43f" d="M243.05 89.55C190.19 46.15 73.91 60.7 73.91 60.7s8.37 116.89 61.24 160.3S255 270.15 284.82 233.85s11.1-100.85-41.77-144.3z" data-original="#43c43f" class=""></path><path fill="#282828" d="M228.13 265.7q-5 0-10.18-.44c-29.86-2.57-61.06-16.1-87.86-38.1C75.2 182.09 66.31 66.18 66 61.27a8 8 0 0 1 7-8.48c4.89-.61 120.31-14.46 175.19 30.6 26.8 22 46.15 50 54.48 78.76 8.64 29.86 4.52 57.12-11.61 76.76-14.4 17.46-36.47 26.79-62.93 26.79zM82.62 67.85c2.94 26.29 15.6 112.5 57.58 147 24.33 20 52.43 32.24 79.11 34.54 25.57 2.19 46.65-5.11 59.34-20.57 27-32.84 8.72-92.54-40.66-133.08C196 61.24 109 65.62 82.62 67.85z" data-original="#282828" class=""></path><path fill="#43c43f" d="m162.51 131.12 122.97 101.71" data-original="#43c43f" class=""></path><path fill="#282828" d="M285.48 240.8a7.94 7.94 0 0 1-5.08-1.8l-123-101.71A8 8 0 1 1 167.59 125l123 101.71a8 8 0 0 1-5.09 14.12z" data-original="#282828" class=""></path><path fill="#43c43f" d="M197.26 257.85C165 285 160.69 357.11 160.69 357.11s71.79 8.11 104.06-19 43.32-67.11 24.68-89.26-59.9-18.14-92.17 9z" data-original="#43c43f" class=""></path><path fill="#282828" d="M185 366.25a242.33 242.33 0 0 1-25.21-1.25 8 8 0 0 1-7.06-8.4c.18-3.08 4.9-75.87 39.39-104.89 16.83-14.16 36.56-23 55.55-24.84 20.11-2 37.1 4 47.85 16.77s13.71 30.55 8.33 50c-5.09 18.4-17.16 36.32-34 50.48-22.08 18.66-59.85 22.13-84.85 22.13zm-15.6-16.45c18.82 1.12 66.89 1.81 90.23-17.82 14.39-12.1 24.64-27.2 28.88-42.53 3.94-14.25 2.11-26.86-5.16-35.5s-19.38-12.61-34.09-11.17c-15.82 1.55-32.46 9.07-46.84 21.17-23.36 19.63-30.92 67.11-33.04 85.85z" data-original="#282828" class=""></path><path fill="#43c43f" d="m206.49 317.61 82.39-69.31" data-original="#43c43f" class=""></path><path fill="#282828" d="M206.49 325.58a8 8 0 0 1-5.14-14.08l82.39-69.31A8 8 0 1 1 294 254.4l-82.39 69.31a7.94 7.94 0 0 1-5.12 1.87z" data-original="#282828" class=""></path><path fill="#43c43f" d="M379 236.83c31.81-27.65 35-99.83 35-99.83s-71.91-7-103.74 20.67S268 225.46 287 247.32s60.14 17.16 92-10.49z" data-original="#43c43f" class=""></path><path fill="#282828" d="M320.53 269.06c-16.37 0-30.22-5.72-39.59-16.51-11-12.62-14.19-30.33-9.12-49.88 4.8-18.48 16.58-36.59 33.18-51 34-29.56 106.67-22.88 109.74-22.59a8 8 0 0 1 7.2 8.29c-.14 3.09-3.7 75.94-37.74 105.5-16.6 14.4-36.2 23.53-55.2 25.69a75.29 75.29 0 0 1-8.47.5zm73.29-124.86c-22.56 0-59.17 2.82-78.36 19.49-14.19 12.33-24.21 27.59-28.21 43-3.72 14.31-1.68 26.89 5.72 35.42s19.57 12.3 34.27 10.63c15.8-1.8 32.31-9.58 46.5-21.91 23-20 29.82-67.58 31.65-86.35-3.13-.16-7.07-.28-11.57-.28z" data-original="#282828" class=""></path><path fill="#43c43f" d="m368.8 177.23-81.29 70.6" data-original="#43c43f" class=""></path><g fill="#282828"><path d="M287.51 255.8a8 8 0 0 1-5.23-14l81.29-70.6a8 8 0 1 1 10.46 12l-81.29 70.6a7.94 7.94 0 0 1-5.23 2zM144.34 170a8 8 0 0 1-1.18-15.86l37.67-5.69 1.93-33.26a8 8 0 0 1 15.92.93l-2.31 39.72a8 8 0 0 1-6.77 7.42l-44.06 6.65a8.1 8.1 0 0 1-1.2.09zM181.16 217.11a8 8 0 0 1-3.49-15.11L221 180.9l7.74-44.29a8 8 0 1 1 15.71 2.74L236 187.67a8 8 0 0 1-4.37 5.8l-47 22.84a8 8 0 0 1-3.47.8zM319.54 376.84a8 8 0 0 1-7.8-9.66l11-50.8a8 8 0 0 1 6.93-6.25l49.4-5.38a8 8 0 0 1 1.73 15.85l-43.68 4.76-9.74 45.18a8 8 0 0 1-7.84 6.3zM159.8 451.18a8 8 0 0 1-7.74-6.1l-15.44-63.88-49.09-31.64a8 8 0 1 1 8.64-13.4l51.77 33.37a8 8 0 0 1 3.43 4.83l16.19 67a8 8 0 0 1-7.76 9.85zM109.26 459a8 8 0 0 1-7.94-7.39l-2.87-38.91-35.52-8.9a8 8 0 0 1 3.88-15.47l41.11 10.3a8 8 0 0 1 6 7.15l3.3 44.66a8 8 0 0 1-7.37 8.54zM364.69 424.19a8 8 0 0 1-7.85-9.41l8.5-46.62a8 8 0 0 1 7.42-6.53l41.55-2.2a8 8 0 0 1 .84 15.93l-35.25 1.87-7.37 40.43a8 8 0 0 1-7.84 6.53zM422.34 128.29a8 8 0 0 1-7.5-5.26L400.36 83a8 8 0 1 1 15-5.43l12.52 34.59 32-.83a8 8 0 0 1 .41 15.94l-37.78 1zM365.82 144.21a8 8 0 0 1-7.69-5.89l-11-40.45a8 8 0 1 1 15.39-4.17l11 40.45a8 8 0 0 1-7.7 10.06zM449.09 198.71h-.56l-42.77-3a8 8 0 0 1 1.11-15.91l42.77 3a8 8 0 0 1-.54 15.93z" fill="#282828" data-original="#282828" class=""></path></g><path fill="#ffffff" d="M125.22 140.56a8 8 0 0 1-7.16-4.45c-8.47-17.19-12.29-36.51-12.45-37.33a8 8 0 0 1 15.65-3.05c0 .18 3.6 18.1 11.1 33.34a8 8 0 0 1-7.15 11.5zM112.46 321.63A8 8 0 0 1 107 307.8c20.8-19.24 34.55-21.9 36.05-22.14l2.52 15.75h.15c-.11 0-10.79 2.3-27.89 18.12a7.94 7.94 0 0 1-5.37 2.1z" data-original="#ffffff"></path></g></svg>