<svg xmlns="http://www.w3.org/2000/svg" version="1.1" xmlns:xlink="http://www.w3.org/1999/xlink" xmlns:svgjs="http://svgjs.com/svgjs" width="512" height="512" x="0" y="0" viewBox="0 0 682.667 682.667" style="enable-background:new 0 0 512 512" xml:space="preserve" class=""><g><defs><clipPath id="a" clipPathUnits="userSpaceOnUse"><path d="M0 512h512V0H0Z" fill="#000000" data-original="#000000"></path></clipPath></defs><g clip-path="url(#a)" transform="matrix(1.33333 0 0 -1.33333 0 682.667)"><path d="m0 0 10.479-1.848a33.648 33.648 0 0 1 23.664 4.597l40.414 25.242a67.288 67.288 0 0 1 30.622 45.387l15.974 90.594-89.459 15.774-89.459 15.774-15.974-90.594a67.29 67.29 0 0 1 13.251-53.123l29.344-37.542A33.646 33.646 0 0 1-10.479 1.848z" style="fill-opacity:1;fill-rule:nonzero;stroke:none" transform="translate(377.128 85.118)" fill="#e1ebef" data-original="#e1ebef" class=""></path><path d="M0 0c34.707 15.58 53.67 73.115 53.67 73.115s-56.619 21.543-90.591 4.419c-6.698-3.376-11.729-7.789-15.498-12.688l-4.559-25.856a67.24 67.24 0 0 1 .796-27.15C-46.08 3.058-24.617-11.051 0 0" style="fill-opacity:1;fill-rule:nonzero;stroke:none" transform="translate(360.367 151.053)" fill="#c4d3d6" data-original="#c4d3d6" class=""></path><path d="m0 0-13.491-76.513A67.293 67.293 0 0 0-44.113-121.9l-40.414-25.241a33.643 33.643 0 0 0-23.664-4.597l-10.479 1.847-9.02 1.591 5.213-6.669a33.643 33.643 0 0 1 20.665-12.413l10.479-1.848 10.479-1.848a33.644 33.644 0 0 1 23.664 4.598l40.414 25.241a67.284 67.284 0 0 1 30.621 45.386L29.82-5.258Z" style="fill-opacity:1;fill-rule:nonzero;stroke:none" transform="translate(468.461 254.348)" fill="#c4d3d6" data-original="#c4d3d6" class=""></path><path d="m0 0-22.365 3.943-10.808-61.295 22.365-3.944 22.365-3.943L22.365-3.944z" style="fill-opacity:1;fill-rule:nonzero;stroke:none" transform="translate(419.63 326.16)" fill="#e1ebef" data-original="#e1ebef" class=""></path><path d="m0 0-7.157-40.588a8.41 8.41 0 0 0-9.744-6.822l-14.081 2.482-9.112 1.607-2.19-12.425 22.364-3.943 22.365-3.944L13.253-2.337z" style="fill-opacity:1;fill-rule:nonzero;stroke:none" transform="translate(428.742 324.553)" fill="#c4d3d6" data-original="#c4d3d6" class=""></path><path d="m0 0-22.365 3.944-21.47-121.764 22.365-3.943 22.365-3.944L22.365-3.943z" style="fill-opacity:1;fill-rule:nonzero;stroke:none" transform="translate(441.1 447.923)" fill="#ffd432" data-original="#ffd432" class=""></path><path d="m0 0-2.191-12.425 23.193-4.089a8.411 8.411 0 0 0 6.823-9.744l-14.168-80.347a8.41 8.41 0 0 0-9.743-6.823l-23.193 4.089-2.191-12.424 44.729-7.887L44.729-7.887z" style="fill-opacity:1;fill-rule:nonzero;stroke:none" transform="translate(418.736 451.866)" fill="#f4ac03" data-original="#f4ac03"></path><path d="m0 0 3.944 22.365-106.026 18.695-3.943-22.365-3.944-22.365L-3.943-22.365Z" style="fill-opacity:1;fill-rule:nonzero;stroke:none" transform="translate(498.057 460.94)" fill="#64aef7" data-original="#64aef7"></path><path d="m0 0-3.651-20.708a8.412 8.412 0 0 0-9.744-6.823l-82.004 14.46-2.775-15.738L7.851-47.504l7.887 44.729z" style="fill-opacity:1;fill-rule:nonzero;stroke:none" transform="translate(486.262 486.08)" fill="#0a86e3" data-original="#0a86e3"></path><path d="M0 0h84c0 23.196-18.804 42-42 42-5.063 0-9.917-.897-14.412-2.539C14.479 60.209-8.643 74-35 74c-3.984 0-7.891-.324-11.704-.93C-50.532 95.18-69.796 112-93 112c-17.055 0-31.988-9.085-40.225-22.679C-140.355 97.112-150.606 102-162 102c-11.394 0-21.645-4.888-28.775-12.679C-199.012 102.915-213.945 112-231 112c-23.204 0-42.468-16.82-46.296-38.93-3.813.606-7.72.93-11.704.93-26.357 0-49.479-13.791-62.588-34.539A41.921 41.921 0 0 1-366 42c-23.196 0-42-18.804-42-42h84z" style="fill-opacity:1;fill-rule:nonzero;stroke:none" transform="translate(418 10)" fill="#a77554" data-original="#a77554"></path><path d="M0 0c-5.063 0-9.917-.897-14.412-2.539C-27.521 18.209-50.643 32-77 32c-3.984 0-7.891-.324-11.704-.93C-92.532 53.18-111.796 70-135 70c-16.994 0-31.876-9.023-40.131-22.536 22.623-2.705 42.103-15.618 53.719-34.003A41.921 41.921 0 0 0-107 16c15.676 0 29.347-8.588 36.563-21.317C-65.202-14.552-72.124-26-82.74-26h-364.097A41.866 41.866 0 0 1-450-42H42C42-18.804 23.196 0 0 0" style="fill-opacity:1;fill-rule:nonzero;stroke:none" transform="translate(460 52)" fill="#915431" data-original="#915431"></path><path d="M0 0a6 6 0 1 0-12 0A6 6 0 0 0 0 0" style="fill-opacity:1;fill-rule:nonzero;stroke:none" transform="translate(417 36)" fill="#000000" data-original="#000000"></path><path d="M0 0a6 6 0 1 0-12 0A6 6 0 0 0 0 0" style="fill-opacity:1;fill-rule:nonzero;stroke:none" transform="translate(125 52)" fill="#000000" data-original="#000000"></path><path d="M0 0s-25.454-30.082-56.42-16.181C-87.835-2.079-105 50-105 50s51.25 19.5 82 4C7.31 38.722 0 0 0 0" style="fill-opacity:1;fill-rule:nonzero;stroke:none" transform="translate(214 206.014)" fill="#6ec030" data-original="#6ec030" class=""></path><path d="M0 0c-4.191 2.113-8.764 3.571-13.535 4.521C5.892-13.074.226-43.165.226-43.165S-19.537-66.514-45.42-62.557c3.733-3.09 7.734-5.709 12-7.624C-2.454-84.082 23-54 23-54S30.31-15.278 0 0" style="fill-opacity:1;fill-rule:nonzero;stroke:none" transform="translate(191 260.014)" fill="#378900" data-original="#378900" class=""></path><path d="M0 0s25.454-30.082 56.42-16.181C87.835-2.079 105 50 105 50s-51.25 19.5-82 4C-7.31 38.722 0 0 0 0" style="fill-opacity:1;fill-rule:nonzero;stroke:none" transform="translate(298 191.014)" fill="#6ec030" data-original="#6ec030" class=""></path><path d="M0 0c-4.648-12.27-20.947-50.571-47.2-62.356-10.14-4.552-19.688-4.387-27.946-2.107 10.118-7.672 27.535-16.543 47.172-7.728C3.441-58.089 20.606-6.01 20.606-6.01S12.128-2.785 0 0" style="fill-opacity:1;fill-rule:nonzero;stroke:none" transform="translate(382.394 247.025)" fill="#378900" data-original="#378900" class=""></path><path d="M0 0s38 9.057 38 43c0 33.875-38 75-38 75s-38-41.125-38-75C-38 9.057 0 0 0 0" style="fill-opacity:1;fill-rule:nonzero;stroke:none" transform="translate(256 268)" fill="#6ec030" data-original="#6ec030" class=""></path><path d="M0 0c9.344-14.414 18.538-32.828 18.538-49.49 0-17.93-10.603-28.916-20.607-35.291-10.617-6.765-24.286-6.711-34.889.076l-.272.175c6.483-25.721 36.768-32.96 36.768-32.96s38 9.057 38 43C37.538-42.813 4.312-4.799 0 0" style="fill-opacity:1;fill-rule:nonzero;stroke:none" transform="translate(256.462 385.49)" fill="#378900" data-original="#378900" class=""></path><path d="M0 0c0 9.941 8.059 18 18 18S36 9.941 36 0" style="stroke-width:15;stroke-linecap:round;stroke-linejoin:round;stroke-miterlimit:10;stroke-dasharray:none;stroke-opacity:1" transform="translate(173 61)" fill="none" stroke="#000000" stroke-width="15" stroke-linecap="round" stroke-linejoin="round" stroke-miterlimit="10" stroke-dasharray="none" stroke-opacity="" data-original="#000000" class=""></path><path d="M0 0c0 9.941 8.059 18 18 18S36 9.941 36 0" style="stroke-width:15;stroke-linecap:round;stroke-linejoin:round;stroke-miterlimit:10;stroke-dasharray:none;stroke-opacity:1" transform="translate(289 42)" fill="none" stroke="#000000" stroke-width="15" stroke-linecap="round" stroke-linejoin="round" stroke-miterlimit="10" stroke-dasharray="none" stroke-opacity="" data-original="#000000" class=""></path><path d="M0 0a6 6 0 1 0-12 0A6 6 0 0 0 0 0" style="fill-opacity:1;fill-rule:nonzero;stroke:none" transform="translate(417 36)" fill="#000000" data-original="#000000"></path><path d="M0 0a6 6 0 1 0-12 0A6 6 0 0 0 0 0" style="fill-opacity:1;fill-rule:nonzero;stroke:none" transform="translate(125 52)" fill="#000000" data-original="#000000"></path><path d="M0 0v156" style="stroke-width:15;stroke-linecap:round;stroke-linejoin:round;stroke-miterlimit:10;stroke-dasharray:none;stroke-opacity:1" transform="translate(256 112)" fill="none" stroke="#000000" stroke-width="15" stroke-linecap="round" stroke-linejoin="round" stroke-miterlimit="10" stroke-dasharray="none" stroke-opacity="" data-original="#000000" class=""></path><path d="M0 0s-14.958 25-42 35" style="stroke-width:15;stroke-linecap:round;stroke-linejoin:round;stroke-miterlimit:10;stroke-dasharray:none;stroke-opacity:1" transform="translate(256 171)" fill="none" stroke="#000000" stroke-width="15" stroke-linecap="round" stroke-linejoin="round" stroke-miterlimit="10" stroke-dasharray="none" stroke-opacity="" data-original="#000000" class=""></path><path d="M0 0s-25.454-30.082-56.42-16.181C-87.835-2.079-105 50-105 50s51.25 19.5 82 4C7.31 38.722 0 0 0 0Z" style="stroke-width:15;stroke-linecap:round;stroke-linejoin:round;stroke-miterlimit:10;stroke-dasharray:none;stroke-opacity:1" transform="translate(214 206.014)" fill="none" stroke="#000000" stroke-width="15" stroke-linecap="round" stroke-linejoin="round" stroke-miterlimit="10" stroke-dasharray="none" stroke-opacity="" data-original="#000000" class=""></path><path d="M0 0s14.958 25 42 35" style="stroke-width:15;stroke-linecap:round;stroke-linejoin:round;stroke-miterlimit:10;stroke-dasharray:none;stroke-opacity:1" transform="translate(256 156)" fill="none" stroke="#000000" stroke-width="15" stroke-linecap="round" stroke-linejoin="round" stroke-miterlimit="10" stroke-dasharray="none" stroke-opacity="" data-original="#000000" class=""></path><path d="M0 0s25.454-30.082 56.42-16.181C87.835-2.079 105 50 105 50s-51.25 19.5-82 4C-7.31 38.722 0 0 0 0Z" style="stroke-width:15;stroke-linecap:round;stroke-linejoin:round;stroke-miterlimit:10;stroke-dasharray:none;stroke-opacity:1" transform="translate(298 191.014)" fill="none" stroke="#000000" stroke-width="15" stroke-linecap="round" stroke-linejoin="round" stroke-miterlimit="10" stroke-dasharray="none" stroke-opacity="" data-original="#000000" class=""></path><path d="M0 0s38 9.057 38 43c0 33.875-38 75-38 75s-38-41.125-38-75C-38 9.057 0 0 0 0Z" style="stroke-width:15;stroke-linecap:round;stroke-linejoin:round;stroke-miterlimit:10;stroke-dasharray:none;stroke-opacity:1" transform="translate(256 268)" fill="none" stroke="#000000" stroke-width="15" stroke-linecap="round" stroke-linejoin="round" stroke-miterlimit="10" stroke-dasharray="none" stroke-opacity="" data-original="#000000" class=""></path><path d="m0 0 46 21.986" style="stroke-width:15;stroke-linecap:round;stroke-linejoin:round;stroke-miterlimit:10;stroke-dasharray:none;stroke-opacity:1" transform="translate(298 191.014)" fill="none" stroke="#000000" stroke-width="15" stroke-linecap="round" stroke-linejoin="round" stroke-miterlimit="10" stroke-dasharray="none" stroke-opacity="" data-original="#000000" class=""></path><path d="m0 0-46 21.986" style="stroke-width:15;stroke-linecap:round;stroke-linejoin:round;stroke-miterlimit:10;stroke-dasharray:none;stroke-opacity:1" transform="translate(214 206.014)" fill="none" stroke="#000000" stroke-width="15" stroke-linecap="round" stroke-linejoin="round" stroke-miterlimit="10" stroke-dasharray="none" stroke-opacity="" data-original="#000000" class=""></path><path d="M0 0v40" style="stroke-width:15;stroke-linecap:round;stroke-linejoin:round;stroke-miterlimit:10;stroke-dasharray:none;stroke-opacity:1" transform="translate(256 268)" fill="none" stroke="#000000" stroke-width="15" stroke-linecap="round" stroke-linejoin="round" stroke-miterlimit="10" stroke-dasharray="none" stroke-opacity="" data-original="#000000" class=""></path><path d="M0 0h84c0 23.196-18.804 42-42 42-5.063 0-9.917-.897-14.412-2.539C14.479 60.209-8.643 74-35 74c-3.984 0-7.891-.324-11.704-.93C-50.532 95.18-69.796 112-93 112c-17.055 0-31.988-9.085-40.225-22.679C-140.355 97.112-150.606 102-162 102c-11.394 0-21.645-4.888-28.775-12.679C-199.012 102.915-213.945 112-231 112c-23.204 0-42.468-16.82-46.296-38.93-3.813.606-7.72.93-11.704.93-26.357 0-49.479-13.791-62.588-34.539A41.921 41.921 0 0 1-366 42c-23.196 0-42-18.804-42-42h84z" style="stroke-width:15;stroke-linecap:round;stroke-linejoin:round;stroke-miterlimit:10;stroke-dasharray:none;stroke-opacity:1" transform="translate(418 10)" fill="none" stroke="#000000" stroke-width="15" stroke-linecap="round" stroke-linejoin="round" stroke-miterlimit="10" stroke-dasharray="none" stroke-opacity="" data-original="#000000" class=""></path><path d="M0 0c5.04.53 9.937 2.196 14.304 4.924l40.414 25.241a67.286 67.286 0 0 1 30.621 45.387l15.974 90.594-13.559 2.391" style="stroke-width:15;stroke-linecap:round;stroke-linejoin:round;stroke-miterlimit:10;stroke-dasharray:none;stroke-opacity:1" transform="translate(396.967 82.943)" fill="none" stroke="#000000" stroke-width="15" stroke-linecap="round" stroke-linejoin="round" stroke-miterlimit="10" stroke-dasharray="none" stroke-opacity="" data-original="#000000" class=""></path><path d="M0 0a67.292 67.292 0 0 1 13.819-49.25L25.58-64.296" style="stroke-width:15;stroke-linecap:round;stroke-linejoin:round;stroke-miterlimit:10;stroke-dasharray:none;stroke-opacity:1" transform="translate(302.822 186.17)" fill="none" stroke="#000000" stroke-width="15" stroke-linecap="round" stroke-linejoin="round" stroke-miterlimit="10" stroke-dasharray="none" stroke-opacity="" data-original="#000000" class=""></path><path d="m0 0-41.945 7.396-89.459 15.774-7.352-41.696" style="stroke-width:15;stroke-linecap:round;stroke-linejoin:round;stroke-miterlimit:10;stroke-dasharray:none;stroke-opacity:1" transform="translate(450.767 257.468)" fill="none" stroke="#000000" stroke-width="15" stroke-linecap="round" stroke-linejoin="round" stroke-miterlimit="10" stroke-dasharray="none" stroke-opacity="" data-original="#000000" class=""></path><path d="m0 0-22.365 3.943-10.808-61.295 22.365-3.944 22.365-3.943L22.365-3.944z" style="stroke-width:15;stroke-linecap:round;stroke-linejoin:round;stroke-miterlimit:10;stroke-dasharray:none;stroke-opacity:1" transform="translate(419.63 326.16)" fill="none" stroke="#000000" stroke-width="15" stroke-linecap="round" stroke-linejoin="round" stroke-miterlimit="10" stroke-dasharray="none" stroke-opacity="" data-original="#000000" class=""></path><path d="m0 0-10.035-56.91 22.365-3.944 22.365-3.943 21.47 121.763L33.8 60.91l-22.365 3.943-5.266-29.867" style="stroke-width:15;stroke-linecap:round;stroke-linejoin:round;stroke-miterlimit:10;stroke-dasharray:none;stroke-opacity:1" transform="translate(407.3 387.013)" fill="none" stroke="#000000" stroke-width="15" stroke-linecap="round" stroke-linejoin="round" stroke-miterlimit="10" stroke-dasharray="none" stroke-opacity="" data-original="#000000" class=""></path><path d="m0 0 3.944 22.365-106.026 18.695-3.943-22.365-3.944-22.365L-3.943-22.365Z" style="stroke-width:15;stroke-linecap:round;stroke-linejoin:round;stroke-miterlimit:10;stroke-dasharray:none;stroke-opacity:1" transform="translate(498.057 460.94)" fill="none" stroke="#000000" stroke-width="15" stroke-linecap="round" stroke-linejoin="round" stroke-miterlimit="10" stroke-dasharray="none" stroke-opacity="" data-original="#000000" class=""></path></g></g></svg>