<svg xmlns="http://www.w3.org/2000/svg" version="1.1" xmlns:xlink="http://www.w3.org/1999/xlink" xmlns:svgjs="http://svgjs.com/svgjs" width="512" height="512" x="0" y="0" viewBox="0 0 512 512" style="enable-background:new 0 0 512 512" xml:space="preserve" class=""><g><path d="M304.641 134.604c23.541-21.222 59.718-40.49 112.588-38.013-.478 52.1-18.531 88.971-36.834 113.046 0 0-53.373-9.205-97.384 17.586 20.177-57.302 21.63-92.619 21.63-92.619z" style="" fill="#46c373" data-original="#46c373"></path><path d="M280.968 233.481s77.064-51.284 124.323-4.024c42.443 42.443 73.293 46.534 96.709 30.07-20.479 42.501-55.269 66.835-81.998 70.921 0 0-12.999-41.558-65.334-26.829-33.001-29.272-58.021-27.118-58.021-27.118s-1.712-25.219-15.679-43.02zM279.87 232.384s51.284-77.064 4.024-124.323c-42.443-42.443-46.534-73.293-30.07-96.709-42.828 20.636-67.207 55.805-71.012 82.613 0 0 40.883 16.187 31.869 69.951 18.986 7.098 27.083 22.462 26.034 52.446 25.618 1.985 39.155 16.022 39.155 16.022z" style="" fill="#a5dc69" data-original="#a5dc69" class=""></path><circle cx="240.65" cy="273.799" r="49.951" style="" fill="#ff5a5a" data-original="#ff5a5a" class=""></circle><path d="M192.78 259.501c-14.121 1.163-28.642-3.646-39.445-14.449a50.069 50.069 0 0 1-6.982-8.766 49.704 49.704 0 0 0-27.201 13.956c-19.507 19.507-19.507 51.134 0 70.641 19.507 19.507 51.134 19.507 70.641 0a49.748 49.748 0 0 0 11.098-16.856c-9.855-12.931-12.567-29.563-8.111-44.526z" style="" fill="#ff5a5a" data-original="#ff5a5a" class=""></path><path d="M274.219 365.339a50.381 50.381 0 0 1-4.822-4.225c-10.804-10.804-15.612-25.324-14.449-39.445-16.646 4.956-35.357 1.045-48.738-11.709a49.765 49.765 0 0 0-16.417 10.923c-19.507 19.507-19.507 51.134 0 70.641s51.134 19.507 70.641 0a49.708 49.708 0 0 0 13.785-26.185z" style="" fill="#ff5a5a" data-original="#ff5a5a" class=""></path><path d="M338.874 385.311c-.096-.094-.195-.181-.29-.276a49.8 49.8 0 0 1-10.376-15.151l.055-.032c-17.079 9.135-38.345 7.637-54.046-4.499a49.718 49.718 0 0 1-13.781 26.171 49.724 49.724 0 0 1-19.719 12.128 49.706 49.706 0 0 0 13.557 25.056c19.507 19.507 51.134 19.507 70.641 0 11.815-11.817 16.46-28.076 13.959-43.397zM153.335 174.41c15.005-15.005 37.176-18.454 55.49-10.376 10.072-18.89 7.153-42.887-8.77-58.81-19.507-19.507-51.134-19.507-70.641 0s-19.507 51.134 0 70.641a49.8 49.8 0 0 0 15.151 10.376 49.918 49.918 0 0 1 8.77-11.831z" style="" fill="#ff5a5a" data-original="#ff5a5a" class=""></path><path d="M205.328 238.48c8.703-8.703 19.82-13.512 31.196-14.449 5.065-17.011.884-36.188-12.548-49.62-19.507-19.507-51.134-19.507-70.641 0s-19.507 51.134 0 70.641c10.804 10.804 25.324 15.612 39.445 14.449a49.719 49.719 0 0 1 12.548-21.021zM340.038 361.114c15.005-15.005 18.454-37.176 10.376-55.49 18.89-10.072 42.887-7.153 58.81 8.77 19.507 19.507 19.507 51.134 0 70.641s-51.134 19.507-70.641 0a49.8 49.8 0 0 1-10.376-15.151 49.925 49.925 0 0 0 11.831-8.77z" style="" fill="#ff5a5a" data-original="#ff5a5a" class=""></path><path d="M275.969 309.121c8.703-8.703 13.512-19.82 14.449-31.196 17.011-5.065 36.188-.884 49.62 12.548 19.507 19.507 19.507 51.134 0 70.641s-51.134 19.507-70.641 0c-10.804-10.804-15.612-25.324-14.449-39.445a49.729 49.729 0 0 0 21.021-12.548zM145.852 184.025zM146.353 236.286c-9.779-15.548-10.144-35.293-1.134-51.171-.214.377-.451.745-.654 1.127a49.813 49.813 0 0 1-18.723-14.354c-15.46-2.679-31.934 1.936-43.873 13.875-19.507 19.507-19.507 51.134 0 70.641a49.702 49.702 0 0 0 25.056 13.557 49.717 49.717 0 0 1 12.128-19.719 49.672 49.672 0 0 1 27.2-13.956zM177.945 339.736c-1.039-1.266-2.146-2.494-3.328-3.676s-2.411-2.289-3.676-3.328c-16.05 5.59-34.381 2.749-48.112-8.52a49.744 49.744 0 0 0-18.853 11.848c-19.507 19.507-19.507 51.134 0 70.641s51.134 19.507 70.641 0a49.74 49.74 0 0 0 11.848-18.853c-11.269-13.731-14.11-32.062-8.52-48.112z" style="" fill="#ff5a5a" data-original="#ff5a5a" class=""></path><path d="M256.029 430.377a49.702 49.702 0 0 1-15.313-26.726c.081-.027.16-.06.241-.087-17.385 5.802-37.322 1.8-51.163-12.041a50.214 50.214 0 0 1-3.804-4.296c.163.204.309.417.475.62a49.744 49.744 0 0 1-11.848 18.853 49.79 49.79 0 0 1-16.088 10.783c-5.435 17.204-1.345 36.766 12.294 50.406 19.507 19.507 51.134 19.507 70.641 0 10.313-10.312 15.16-24.009 14.565-37.512zM123.448 324.686a49.873 49.873 0 0 1-4.296-3.804c-13.841-13.841-17.843-33.778-12.041-51.163-.027.081-.06.16-.087.241a49.706 49.706 0 0 1-26.726-15.313c-13.503-.595-27.2 4.252-37.513 14.564-19.507 19.507-19.507 51.134 0 70.641 13.64 13.64 33.202 17.729 50.406 12.294a49.79 49.79 0 0 1 10.783-16.088 49.74 49.74 0 0 1 18.853-11.848c.204.167.417.314.621.476zM95.271 415.404c-17.812 17.812-45.724 19.35-65.292 4.634-4.143 16.479.223 34.657 13.111 47.546 12.889 12.889 31.067 17.255 47.546 13.111-14.714-19.567-13.176-47.479 4.635-65.291z" style="" fill="#ff5a5a" data-original="#ff5a5a" class=""></path><path d="M170.823 467.889c-13.64-13.64-17.729-33.202-12.294-50.406-17.68 7.367-38.724 4.124-53.436-9.721a50.027 50.027 0 0 0-9.821 7.642c-19.507 19.507-19.507 51.134 0 70.641s51.134 19.507 70.641 0a49.848 49.848 0 0 0 9.799-13.879 50.238 50.238 0 0 1-4.889-4.277z" style="" fill="#ff5a5a" data-original="#ff5a5a" class=""></path><path d="M93.192 352.147c-17.204 5.435-36.766 1.345-50.406-12.294a50.39 50.39 0 0 1-4.277-4.889 49.848 49.848 0 0 0-13.879 9.799c-19.507 19.507-19.507 51.134 0 70.641s51.134 19.507 70.641 0a50.057 50.057 0 0 0 7.642-9.821c-13.845-14.712-17.088-35.756-9.721-53.436z" style="" fill="#ff5a5a" data-original="#ff5a5a" class=""></path><path d="M508.469 251.901a10 10 0 0 0-12.22-.554c-7.977 5.608-32.251 22.676-83.886-28.961-5.69-5.689-11.983-10.322-18.813-13.903 21.678-31.626 33.297-70.076 33.68-111.801a10 10 0 0 0-9.532-10.081c-42.931-2.01-81.531 9.817-112.282 34.265-3.651-7.242-8.466-13.893-14.449-19.877-3.905-3.905-10.237-3.905-14.143 0-3.905 3.905-3.905 10.237 0 14.143 35.851 35.85 5.074 94.264-3.318 108.512a59.198 59.198 0 0 0-16.441-7.514c17.028-20.822 19.052-52.324 2.919-77.689-2.965-4.66-9.146-6.035-13.805-3.07-4.66 2.964-6.035 9.145-3.071 13.805 9.39 14.763 10.226 32.341 3.674 46.078-2.597-10.415-7.949-20.129-15.734-27.914a60.554 60.554 0 0 0-9.472-7.726c7.139-21.332 1.716-45.295-14.449-61.461a59.759 59.759 0 0 0-12.903-9.793c4.757-16.771 18.362-37.422 40.795-54.052-.389 5.03-.099 10.192.875 15.474 1.001 5.431 6.213 9.022 11.647 8.022 5.431-1.001 9.023-6.215 8.022-11.647-1.954-10.604.153-20.108 6.443-29.054a10 10 0 0 0-12.521-14.76c-41.448 19.971-65.958 52.359-74.101 79.239-18.674-3.344-38.637 2.17-53.04 16.572-17.177 17.178-21.714 42.267-13.645 63.642-12.645 1.834-24.559 7.657-33.799 16.896-11.324 11.323-17.56 26.378-17.56 42.392 0 8.953 1.953 17.605 5.651 25.475-10.224 2.667-19.685 7.995-27.273 15.583-11.324 11.323-17.56 26.378-17.56 42.392 0 9.585 2.25 18.819 6.472 27.122a59.99 59.99 0 0 0-7.068 6.038C6.236 349.015 0 364.07 0 380.084s6.236 31.068 17.559 42.392c.492.492.999.958 1.503 1.429-2.565 18.472 3.651 37.445 16.958 50.752 11.338 11.337 26.785 17.532 42.534 17.531a59.71 59.71 0 0 0 8.217-.574c.471.504.938 1.012 1.429 1.504 11.688 11.688 27.04 17.531 42.392 17.531s30.705-5.845 42.392-17.532a60.015 60.015 0 0 0 6.051-7.087 60.042 60.042 0 0 0 27.109 6.462c15.352 0 30.705-5.844 42.392-17.53 7.588-7.588 12.915-17.05 15.582-27.274 7.87 3.698 16.522 5.651 25.475 5.651 16.014 0 31.068-6.236 42.392-17.56 8.721-8.72 14.406-19.859 16.557-31.741a60.098 60.098 0 0 0 25.362 5.599c15.35 0 30.706-5.845 42.392-17.53 14.746-14.747 20.179-35.326 16.319-54.38 12.401-3.858 25.226-10.94 37.05-20.583 16.893-13.778 31.189-32.2 41.344-53.274a10.004 10.004 0 0 0-2.54-11.969zM406.917 106.377c-1.975 36.132-13.042 68.047-32.913 95.059-15.319-3.319-32.546-2.467-51.245 2.668-.219.06-.433.124-.651.185l24.494-24.494c3.905-3.905 3.905-10.237 0-14.143s-10.237-3.905-14.143 0l-22.598 22.598c4.386-17.055 5.174-32.857 2.432-47.062 25.84-22.887 57.625-34.579 94.624-34.811zm-62.249 219.417c0 10.671-4.156 20.703-11.702 28.249-14.293 14.293-36.808 15.46-52.457 3.521l-.013-.01a40.18 40.18 0 0 1-4.028-3.51 39.86 39.86 0 0 1-11.583-25.425 59.618 59.618 0 0 0 18.154-12.425c8.335-8.335 13.902-18.696 16.266-29.969a39.92 39.92 0 0 1 33.662 11.321c7.546 7.544 11.701 17.576 11.701 28.248zm-106.802 68.28a9.583 9.583 0 0 0-.479.158 40.032 40.032 0 0 1-12.273 1.922c-10.671 0-20.704-4.156-28.25-11.702-7.545-7.546-11.701-17.578-11.701-28.249s4.156-20.703 11.702-28.249a39.89 39.89 0 0 1 7.896-6.138c10.598 7.932 23.24 11.908 35.888 11.908 1.546 0 3.092-.076 4.635-.194a59.814 59.814 0 0 0 17.043 34.656c.222.222.454.427.678.645a39.723 39.723 0 0 1-9.641 15.623 39.783 39.783 0 0 1-15.498 9.62zm-70.321 5.555a39.91 39.91 0 0 1-12.596 8.523 9.665 9.665 0 0 0-.514.219 39.876 39.876 0 0 1-15.139 2.961c-10.29 0-19.979-3.875-27.425-10.917a28.834 28.834 0 0 1-1.612-1.612c-7.041-7.445-10.914-17.134-10.914-27.423a39.891 39.891 0 0 1 2.97-15.164c.07-.156.139-.311.201-.471a39.908 39.908 0 0 1 8.531-12.615 39.69 39.69 0 0 1 10.425-7.509c9.969 6.577 21.483 9.865 33.001 9.863 3.978 0 7.954-.401 11.868-1.186a60.558 60.558 0 0 0-1.178 11.905c0 11.915 3.458 23.296 9.889 33.007a39.693 39.693 0 0 1-7.507 10.419c-3.678 3.678 3.093-3.092 0 0zm-21.281-147.506c9.383 9.382 21.638 15.319 34.657 17.024-.951 12.324 1.878 24.881 8.495 35.775a39.795 39.795 0 0 1-6.694 8.889c-15.577 15.575-40.922 15.577-56.5 0-7.545-7.546-11.701-17.578-11.701-28.249 0-4.216.659-8.329 1.909-12.232.069-.194.137-.39.195-.59a39.775 39.775 0 0 1 9.598-15.427 39.634 39.634 0 0 1 15.922-9.749 61.105 61.105 0 0 0 4.119 4.559zm134.335 21.678c0 10.671-4.156 20.703-11.701 28.249-15.282 15.286-39.965 15.563-55.603.851-.031-.031-.064-.06-.096-.091-.267-.253-.538-.499-.8-.76-15.577-15.576-15.577-40.922 0-56.499 7.545-7.545 17.578-11.701 28.25-11.701 10.671 0 20.704 4.156 28.249 11.702 7.545 7.545 11.701 17.578 11.701 28.249zm-52.38-58.656c-11.271 2.365-21.63 7.931-29.963 16.265a59.614 59.614 0 0 0-12.425 18.153c-9.53-.682-18.62-4.775-25.426-11.582a40.3 40.3 0 0 1-5.711-7.198c-3.897-6.26-5.991-13.493-5.991-21.05 0-10.671 4.156-20.704 11.702-28.25 7.545-7.545 17.578-11.701 28.249-11.701s20.704 4.156 28.25 11.702c8.836 8.833 12.966 21.397 11.315 33.661zm-91.735-102.85c15.577-15.577 40.923-15.577 56.499 0 10.342 10.342 14.085 25.471 10.161 39.241a60.368 60.368 0 0 0-14.489-1.756c-16.013 0-31.068 6.236-42.391 17.559a60.835 60.835 0 0 0-4.917 5.583 40.01 40.01 0 0 1-4.862-4.128c-15.577-15.576-15.577-40.922-.001-56.499zM89.04 192.833c8.374-8.374 20.049-12.54 31.771-11.509.503.542 1.005 1.084 1.532 1.612a59.968 59.968 0 0 0 9.47 7.702 60.05 60.05 0 0 0-3.108 19.094c0 6.987 1.188 13.79 3.467 20.182a59.616 59.616 0 0 0-20.091 13.257 60.106 60.106 0 0 0-10.718 14.537 39.831 39.831 0 0 1-13.656-9.775l-.067-.073c-6.657-7.354-10.301-16.785-10.301-26.776-.001-10.673 4.155-20.705 11.701-28.251zm-39.182 83.45c7.011-7.011 16.419-11.128 26.269-11.624a59.706 59.706 0 0 0 19.031 12.135 60.848 60.848 0 0 0-.635 8.768c0 13.054 4.146 25.469 11.812 35.747a60.092 60.092 0 0 0-20.206 22.332c-13.099 2.693-26.684-1.275-36.27-10.86a40.726 40.726 0 0 1-3.31-3.763c-.059-.08-.122-.156-.184-.235-5.318-6.932-8.208-15.368-8.208-24.251-.001-10.671 4.155-20.703 11.701-28.249zm-18.156 75.551a40.06 40.06 0 0 1 4.843-4.122c11.343 10.923 26.212 16.784 41.483 16.784.575 0 1.151-.016 1.727-.033a61.03 61.03 0 0 0-.408 6.917c0 12.579 3.863 24.557 11.001 34.608a40.993 40.993 0 0 1-2.146 2.345c-14.198 14.2-36.508 15.45-52.143 3.764l-.091-.07a40.152 40.152 0 0 1-4.265-3.694C24.156 400.787 20 390.755 20 380.084s4.156-20.703 11.702-28.25zm18.461 108.68c-6.722-6.722-10.683-15.327-11.533-24.419a60.196 60.196 0 0 0 21.322 3.912c3.993 0 7.985-.405 11.914-1.195a60.318 60.318 0 0 0 2.717 33.235c-9.094-.85-17.699-4.811-24.42-11.533zm52.18 18.46a40.028 40.028 0 0 1-3.693-4.265l-.071-.091c-11.684-15.635-10.434-37.944 3.764-52.143a40.27 40.27 0 0 1 2.345-2.146c10.052 7.139 22.03 11.002 34.608 11.002 2.328 0 4.633-.147 6.912-.408-.458 15.871 5.415 31.446 16.75 43.215a40.106 40.106 0 0 1-4.117 4.836c-15.575 15.579-40.921 15.58-56.498 0zm79.433-14.759-.065-.05a40.187 40.187 0 0 1-3.817-3.347c-9.585-9.585-13.554-23.169-10.86-36.27a60.141 60.141 0 0 0 14.653-10.777 60.146 60.146 0 0 0 7.679-9.43c10.278 7.666 22.693 11.812 35.747 11.812.001 0 0 0 0 0 2.961 0 5.889-.216 8.768-.635a59.71 59.71 0 0 0 12.137 19.033c-.492 9.845-4.615 19.256-11.625 26.266-14.342 14.343-36.962 15.468-52.617 3.398zm136.067-42.579c-7.546 7.546-17.578 11.702-28.25 11.702s-20.704-4.156-28.25-11.702a39.82 39.82 0 0 1-8.375-12.323 60.11 60.11 0 0 0 14.537-10.719 59.743 59.743 0 0 0 12.47-18.203 60.123 60.123 0 0 0 43.819 2.215 59.757 59.757 0 0 0 5.557 7.212c1.044 11.734-3.138 23.449-11.508 31.818zm84.311-43.672c-15.493 15.492-40.644 15.569-56.24.246l-.005-.006a15.406 15.406 0 0 0-.281-.269 39.937 39.937 0 0 1-4.106-4.836 60.003 60.003 0 0 0 5.587-4.914c11.324-11.323 17.56-26.378 17.56-42.392 0-4.952-.6-9.811-1.758-14.498a39.862 39.862 0 0 1 39.243 10.168c15.576 15.579 15.576 40.925 0 56.501zm23.256-58.931a59.852 59.852 0 0 0-9.115-11.711 59.815 59.815 0 0 0-61.461-14.449 60.44 60.44 0 0 0-7.726-9.472 59.9 59.9 0 0 0-40.064-17.514c7.662-4.348 16.216-6.579 24.875-6.378 11.802.283 22.386 5.083 29.801 13.514a9.979 9.979 0 0 0 7.513 3.396c2.346 0 4.701-.82 6.601-2.491 4.147-3.647 4.552-9.966.904-14.113-11.145-12.671-26.892-19.88-44.339-20.299-12.975-.313-25.727 3.181-36.937 9.969a59.353 59.353 0 0 0-5.506-9.784c14.667-8.596 72.619-38.817 108.264-3.172 29.711 29.711 56.788 43.702 80.874 41.841-16.428 22.327-36.681 35.812-53.684 40.663z" fill="#000000" data-original="#000000" class=""></path><path d="M252.785 68.726c-4.646 2.986-5.991 9.173-3.004 13.819l.212.328a9.99 9.99 0 0 0 8.395 4.553 9.947 9.947 0 0 0 5.439-1.616c4.631-3.009 5.946-9.203 2.937-13.833l-.16-.247c-2.987-4.646-9.174-5.991-13.819-3.004zM364.69 157.563c2.63 0 5.21-1.07 7.07-2.93 1.86-1.86 2.93-4.44 2.93-7.07s-1.07-5.21-2.93-7.07-4.44-2.93-7.07-2.93-5.21 1.07-7.07 2.93c-1.86 1.86-2.93 4.44-2.93 7.07s1.07 5.21 2.93 7.07a10.071 10.071 0 0 0 7.07 2.93z" fill="#000000" data-original="#000000" class=""></path></g></svg>