<svg
        xmlns="http://www.w3.org/2000/svg" version="1.1"
        xmlns:xlink="http://www.w3.org/1999/xlink"
        xmlns:svgjs="http://svgjs.com/svgjs" width="512" height="512" x="0" y="0" viewBox="0 0 511.999 511.999" style="enable-background:new 0 0 512 512" xml:space="preserve" class="">
	<g>
		<path d="M88.734 423.244c142.72 142.722 474.954-112.833 401.488-401.488C201.567-51.709-53.987 280.524 88.734 423.244z" style="" fill="#88BD87FF"
              data-original="#76cc5b" class="" opacity="1"></path>
        <path d="M88.734 377.98c-22.602-22.602-35.205-49.962-39.279-79.709-5.907 46.999 5.577 91.27 39.279 124.973C221.37 555.88 517.679 344.538 499.926 82.321 483.702 322.738 213.64 502.888 88.734 377.98z" style="opacity:0.2;enable-background:new ;" fill="#000000" data-original="#000000" class=""></path>
        <path d="M178.111 108.674C267.085 35.055 377.052 6.981 480.856 31.123c7.761 33.328 10.23 67.401 7.34 101.392-.531 6.227 4.089 11.704 10.316 12.233.327.029.652.041.973.041 5.815 0 10.761-4.457 11.262-10.358 3.295-38.749.078-77.598-9.558-115.464a11.322 11.322 0 0 0-8.176-8.176c-112.803-28.71-232.842.609-329.329 80.446-4.815 3.985-5.489 11.117-1.504 15.933 3.983 4.814 11.118 5.487 15.931 1.504zM482.137 173.374c-21.214 100.242-89.336 194.195-177.781 245.194-5.415 3.122-7.272 10.041-4.151 15.455a11.308 11.308 0 0 0 15.454 4.151c93.84-54.109 166.116-153.779 188.62-260.115 1.293-6.114-2.613-12.12-8.728-13.413-6.111-1.293-12.119 2.615-13.414 8.728z" fill="#000000" data-original="#000000" class=""></path>
        <path d="M11.316 511.978c2.895 0 5.792-1.104 8.003-3.313l69.713-69.714c27.928 24.058 62.931 36.309 101.817 36.309 26.415-.002 54.622-5.655 83.61-17.102 5.813-2.295 8.664-8.869 6.369-14.681-2.295-5.813-8.872-8.662-14.681-6.369-32.356 12.778-64.45 17.839-92.805 14.634-26.117-2.951-49.024-12.644-68.26-28.842l50.756-50.756 77.055 16.208c.786.166 1.569.244 2.342.244 5.239 0 9.942-3.659 11.063-8.989 1.287-6.115-2.628-12.117-8.745-13.403l-62.606-13.169 57.295-57.295 77.056 16.208c.786.164 1.569.244 2.342.244 5.239 0 9.941-3.659 11.063-8.989 1.287-6.115-2.628-12.116-8.745-13.403l-62.606-13.169 57.295-57.295 77.055 16.209c.786.164 1.569.244 2.342.244 5.239 0 9.941-3.659 11.063-8.989 1.287-6.117-2.628-12.117-8.745-13.403l-62.606-13.169 61.303-61.303c4.419-4.419 4.419-11.583 0-16.002-4.421-4.418-11.585-4.421-16.004 0l-61.301 61.301-13.169-62.605c-1.287-6.117-7.294-10.031-13.404-8.744-6.117 1.287-10.031 7.288-8.745 13.403l16.209 77.055-57.295 57.295-13.167-62.605c-1.289-6.117-7.292-10.031-13.404-8.745-6.117 1.287-10.031 7.288-8.745 13.403l16.208 77.056-57.294 57.294-13.169-62.605c-1.287-6.117-7.289-10.031-13.404-8.743-6.117 1.287-10.031 7.288-8.745 13.403l16.209 77.055-50.756 50.756c-33.547-39.793-32.936-87.643-26-121.815 10.24-50.462 40.344-103.232 84.766-148.591 4.373-4.465 4.299-11.63-.166-16.002-4.469-4.374-11.631-4.297-16.002.167-47.444 48.44-79.684 105.237-90.781 159.925-11.198 55.181.22 105.26 32.141 142.356L3.314 492.661c-4.419 4.419-4.419 11.583 0 16.002a11.274 11.274 0 0 0 8.002 3.315z" fill="#000000" data-original="#000000" class=""></path>
	</g>
</svg>