<svg xmlns="http://www.w3.org/2000/svg" version="1.1" xmlns:xlink="http://www.w3.org/1999/xlink" xmlns:svgjs="http://svgjs.com/svgjs" width="512" height="512" x="0" y="0" viewBox="0 0 512.039 512.039" style="enable-background:new 0 0 512 512" xml:space="preserve" class=""><g><linearGradient id="a" x1="256.02" x2="256.02" y1="512" y2="0" gradientUnits="userSpaceOnUse"><stop offset="0" stop-color="#c3ffe8"></stop><stop offset=".997" stop-color="#f0fff4"></stop></linearGradient><linearGradient id="b" x1="256.02" x2="256.02" y1="512.039" y2="248.528" gradientUnits="userSpaceOnUse"><stop offset="0" stop-color="#00b59c"></stop><stop offset="1" stop-color="#9cffac"></stop></linearGradient><path fill="url(#a)" d="M314.203 210.184c-20.409 20.422-24.507 53.63-25.34 67.762l-17.844 17.844v-77.578l39.053-39.053c14.132-.83 47.353-4.92 67.764-25.342 17.549-17.549 17.549-46.084 0-63.633-17.52-17.549-46.113-17.549-63.633 0-20.409 20.422-24.507 53.63-25.34 67.762l-17.844 17.844v-64.952c9.404-10.582 30-36.958 30-65.837 0-24.814-20.186-45-45-45s-45 20.186-45 45c0 28.879 20.596 55.256 30 65.837v64.952l-17.844-17.844c-.833-14.132-4.931-47.34-25.34-67.762-17.52-17.549-46.113-17.549-63.633 0-17.549 17.549-17.549 46.084 0 63.633 20.411 20.422 53.632 24.512 67.764 25.342l39.053 39.053v77.578l-17.844-17.844c-.833-14.132-4.931-47.34-25.34-67.762-17.52-17.549-46.113-17.549-63.633 0-17.549 17.549-17.549 46.084 0 63.633 20.411 20.422 53.632 24.512 67.764 25.342l39.053 39.053V497c0 8.291 6.709 15 15 15s15-6.709 15-15V338.211l39.053-39.053c14.132-.83 47.353-4.92 67.764-25.342 17.549-17.549 17.549-46.084 0-63.633-17.52-17.548-46.113-17.548-63.633.001z" data-original="url(#a)" class=""></path><path fill="url(#b)" d="M500.121 252.913c-4.482-4.512-11.338-5.64-17.051-2.93-5.068 2.417-124.775 59.883-184.482 119.604-21.085 21.09-34.052 42.023-42.568 60.886-8.516-18.864-21.484-39.796-42.568-60.886C153.744 309.866 34.037 252.4 28.969 249.983c-5.684-2.71-12.568-1.567-17.051 2.93s-5.684 11.338-2.93 17.065c2.402 5.068 59.883 124.746 119.619 184.453 43.2 43.212 94.049 59.482 127.412 57.437 33.777 2.071 84.559-14.572 127.412-57.437 59.736-59.707 117.217-179.385 119.619-184.453 2.755-5.727 1.553-12.568-2.929-17.065z" data-original="url(#b)"></path></g></svg>