<svg xmlns="http://www.w3.org/2000/svg" version="1.1" xmlns:xlink="http://www.w3.org/1999/xlink" xmlns:svgjs="http://svgjs.com/svgjs" width="512" height="512" x="0" y="0" viewBox="0 0 64 64" style="enable-background:new 0 0 512 512" xml:space="preserve" class=""><g><path fill="#559b38" d="M48 13a4 4 0 0 0 4 4 4 4 0 0 0 4-4h6v40h-6a4 4 0 0 0-4-4 4 4 0 0 0-4 4H2V13z" data-original="#559b38"></path><path fill="#6bc148" d="M52 17a4 4 0 0 1-4-4H2v34h51a3 3 0 0 0 3-3V13a4 4 0 0 1-4 4z" data-original="#6bc148" class=""></path><path fill="#f3a845" d="M16 10h4v6h-4z" data-original="#f3a845"></path><path fill="#eecc61" d="M16 10v5h2a1 1 0 0 0 1-1v-4z" data-original="#eecc61" class=""></path><path fill="#f3a845" d="M8 10h4v6H8z" data-original="#f3a845"></path><path fill="#eecc61" d="M8 10v5h2a1 1 0 0 0 1-1v-4z" data-original="#eecc61" class=""></path><path fill="#559b38" d="M10 24h18v18H10z" data-original="#559b38"></path><path fill="#f3a845" d="M14 28h10v10H14z" data-original="#f3a845"></path><g fill="#eecc61"><circle cx="38" cy="21" r="2" fill="#eecc61" data-original="#eecc61" class=""></circle><circle cx="43" cy="35" r="2" fill="#eecc61" data-original="#eecc61" class=""></circle><circle cx="38" cy="47" r="2" fill="#eecc61" data-original="#eecc61" class=""></circle><circle cx="53" cy="32" r="2" fill="#eecc61" data-original="#eecc61" class=""></circle></g><path fill="#cccccc" d="M46 41h4v4h-4zM54 41h4v4h-4z" data-original="#cccccc"></path><path fill="#f3a845" d="M24 10h4v6h-4z" data-original="#f3a845"></path><path fill="#eecc61" d="M14 28v8h5a3 3 0 0 0 3-3v-5zM24 10v5h2a1 1 0 0 0 1-1v-4z" data-original="#eecc61" class=""></path><path d="M62 12h-6a1 1 0 0 0-1 1 3 3 0 0 1-6 0 1 1 0 0 0-1-1H29v-2a1 1 0 0 0-1-1h-4a1 1 0 0 0-1 1v2h-2v-2a1 1 0 0 0-1-1h-4a1 1 0 0 0-1 1v2h-2v-2a1 1 0 0 0-1-1H8a1 1 0 0 0-1 1v2H2a1 1 0 0 0-1 1v40a1 1 0 0 0 1 1h46a1 1 0 0 0 1-1 3 3 0 0 1 6 0 1 1 0 0 0 1 1h6a1 1 0 0 0 1-1V13a1 1 0 0 0-1-1zm-23 9a1 1 0 1 1-1-1 1 1 0 0 1 1 1zM25 11h2v4h-2zm-8 0h2v4h-2zm-8 0h2v4H9zm52 41h-4.1a5 5 0 0 0-9.8 0H3V14h4v2a1 1 0 0 0 1 1h4a1 1 0 0 0 1-1v-2h2v2a1 1 0 0 0 1 1h4a1 1 0 0 0 1-1v-2h2v2a1 1 0 0 0 1 1h4a1 1 0 0 0 1-1v-2h8v4.184a3 3 0 1 0 2 0V14h4v9a1 1 0 0 0 .293.707l7.007 7.008A2.951 2.951 0 0 0 50 32a3 3 0 1 0 3-3 2.951 2.951 0 0 0-1.285.3L45 22.586V14h2.1a5 5 0 0 0 9.8 0H61zm-8-21a1 1 0 1 1-1 1 1 1 0 0 1 1-1z" fill="#000000" data-original="#000000" class=""></path><path d="M40.184 36a3 3 0 1 0 0-2H29v-2h4v-2h-4v-2h4v-2h-4v-2a1 1 0 0 0-1-1h-2v-4h-2v4h-2v-4h-2v4h-2v-4h-2v4h-2v-4h-2v4h-2a1 1 0 0 0-1 1v2H5v2h4v2H5v2h4v2H5v2h4v2H5v2h4v2a1 1 0 0 0 1 1h2v4h2v-4h2v4h2v-4h2v4h2v-4h2v4h2v-4h2a1 1 0 0 0 1-1v-2h8v4.184a3 3 0 1 0 2 0V39a1 1 0 0 0-1-1h-9v-2zM43 34a1 1 0 1 1-1 1 1 1 0 0 1 1-1zm-16 7H11V25h16zm11 7a1 1 0 1 1 1-1 1 1 0 0 1-1 1z" fill="#000000" data-original="#000000" class=""></path><path d="M14 39h10a1 1 0 0 0 1-1V28a1 1 0 0 0-1-1H14a1 1 0 0 0-1 1v10a1 1 0 0 0 1 1zm1-10h8v8h-8zM53 41v1h-2v-1a1 1 0 0 0-1-1h-4a1 1 0 0 0-1 1v4a1 1 0 0 0 1 1h4a1 1 0 0 0 1-1v-1h2v1a1 1 0 0 0 1 1h4a1 1 0 0 0 1-1v-4a1 1 0 0 0-1-1h-4a1 1 0 0 0-1 1zm-4 3h-2v-2h2zm6-2h2v2h-2z" fill="#000000" data-original="#000000" class=""></path></g></svg>