<svg xmlns="http://www.w3.org/2000/svg" version="1.1" xmlns:xlink="http://www.w3.org/1999/xlink" xmlns:svgjs="http://svgjs.com/svgjs" width="512" height="512" x="0" y="0" viewBox="0 0 512 512" style="enable-background:new 0 0 512 512" xml:space="preserve" class=""><g><path fill="#a8d445" d="M419.26 92.732c7.301-11.252 10.627-21.472 10.627-31.835 0-17.776-9.763-35.114-32.643-57.971-3.904-3.9-10.23-3.9-14.135 0-22.88 22.856-32.643 40.194-32.643 57.971 0 16.271 8.186 32.184 27.117 52.307l-34.967 34.966c.038-.807.061-1.614.061-2.422 0-19.429-10.749-38.457-35.943-63.626-3.904-3.9-10.23-3.9-14.135 0-25.194 25.169-35.943 44.197-35.943 63.626 0 17.938 9.174 35.548 30.41 57.973l-40.615 40.615c.038-.807.061-1.614.061-2.422 0-19.429-10.75-38.458-35.944-63.626-3.904-3.9-10.23-3.9-14.135 0-25.194 25.168-35.944 44.197-35.944 63.626 0 17.938 9.174 35.548 30.411 57.973l-40.615 40.615a51.47 51.47 0 0 0 .061-2.421c0-19.429-10.75-38.458-35.944-63.626-3.904-3.9-10.23-3.9-14.135 0-25.194 25.168-35.944 44.197-35.944 63.626 0 17.938 9.174 35.548 30.41 57.973l-90.34 90.34c-5.858 5.857-5.858 15.355 0 21.213l16.478-4.615 219.651-221.133L423.42 104.798l-4.138-12.08a.269.269 0 0 0-.022.014z" data-original="#a8d445" class=""></path><path fill="#8ab03b" d="M509.071 114.752c-22.878-22.878-40.223-32.639-57.998-32.639-10.353 0-20.559 3.319-31.791 10.604L4.393 507.606C7.322 510.535 11.161 512 15 512s7.678-1.465 10.606-4.394l90.337-90.337c22.403 21.234 40.004 30.407 57.942 30.407 19.427 0 38.465-10.748 63.656-35.939a10.003 10.003 0 0 0 0-14.142c-25.191-25.191-44.229-35.939-63.656-35.939-.796 0-1.591.022-2.386.058l40.611-40.611c22.403 21.234 40.004 30.408 57.942 30.408 19.427 0 38.465-10.749 63.656-35.94 3.905-3.905 3.905-10.237 0-14.143-25.191-25.191-44.229-35.939-63.656-35.939-.796 0-1.591.022-2.386.058l40.611-40.61c22.403 21.235 40.004 30.408 57.942 30.408 19.427 0 38.465-10.748 63.656-35.939 3.905-3.905 3.905-10.237 0-14.143-25.191-25.191-44.229-35.939-63.656-35.939-.796 0-1.591.022-2.386.058l34.962-34.962c20.103 18.929 36.009 27.115 52.279 27.115 17.775 0 35.12-9.761 57.998-32.639 3.904-3.907 3.904-10.239-.001-14.144z" data-original="#8ab03b" class=""></path></g></svg>