<svg xmlns="http://www.w3.org/2000/svg" version="1.1" xmlns:xlink="http://www.w3.org/1999/xlink" xmlns:svgjs="http://svgjs.com/svgjs" width="512" height="512" x="0" y="0" viewBox="0 0 100 100" style="enable-background:new 0 0 512 512" xml:space="preserve" class=""><g><path fill="#148b2e" fill-rule="evenodd" d="M22.15 79.343V92.5h-3V79.343zM51.5 79.343V92.5h-3V79.343zM80.85 79.343V92.5h-3V79.343zM70.286 12.63l-1.306.945-1.76-2.43 1.307-.945c6.486-4.697 15.551-3.246 20.248 3.24l.628.868c4.693 6.48 3.244 15.54-3.237 20.232l-1.76-2.43c5.14-3.72 6.289-10.904 2.568-16.043l-.629-.867c-3.725-5.145-10.915-6.295-16.059-2.57z" clip-rule="evenodd" data-original="#148b2e" class=""></path><path fill="#148b2e" d="m32.532 51.467-1.225-11.843 23.686-2.452 1.226 11.843zM8 69.729h4.169c5.523 0 10 4.477 10 10v4.169H18c-5.523 0-10-4.478-10-10z" data-original="#148b2e" class=""></path><path fill="#0ab342" d="M33.301 69.729h-4.168c-5.523 0-10 4.477-10 10v4.169H23.3c5.523 0 10-4.478 10-10z" data-original="#0ab342" class=""></path><path fill="#148b2e" d="M37.35 69.729h4.168c5.523 0 10 4.477 10 10v4.169H47.35c-5.523 0-10-4.478-10-10z" data-original="#148b2e" class=""></path><path fill="#0ab342" d="M62.651 69.729h-4.169c-5.522 0-10 4.477-10 10v4.169h4.17c5.522 0 10-4.478 10-10z" data-original="#0ab342" class=""></path><path fill="#148b2e" d="M66.7 69.729h4.168c5.523 0 10 4.477 10 10v4.169h-4.169c-5.523 0-10-4.478-10-10z" data-original="#148b2e" class=""></path><path fill="#0ab342" d="M92 69.729h-4.168c-5.523 0-10 4.477-10 10v4.169h4.169c5.523 0 10-4.478 10-10zM38.508 30.179a5 5 0 0 1 1.312-6.693L61.108 8.07a5 5 0 0 1 6.841.932l22.156 27.782a6 6 0 0 1-1.172 8.6L65.921 62.05a6 6 0 0 1-8.612-1.687z" data-original="#0ab342" class=""></path><path fill="#f1b94c" d="M31.082 55.049c-1.843 1.547-4.665.404-4.913-1.99l-1.344-12.983c-.234-2.26 2.034-3.95 4.134-3.08l5.58 2.316 1.223 11.809z" data-original="#f1b94c"></path><path fill="#148b2e" d="m40.692 33.685-1.59-2.553L68.439 9.617l1.872 2.348z" data-original="#148b2e" class=""></path><path fill="#713e17" fill-rule="evenodd" d="M91.5 93h-83v-3h83z" clip-rule="evenodd" data-original="#713e17"></path><g fill="#21a8e4"><path d="M20.458 46.326c.683-.408.949-1.246.601-1.96l-.027-.055c-.362-.745-1.263-1.06-1.978-.64-.116.068-.233.138-.35.21-.705.433-.85 1.377-.362 2.047l.036.049c.467.642 1.398.756 2.08.349zM16.148 50.087c.492-.62.456-1.502-.117-2.047l-.049-.046c-.6-.571-1.554-.551-2.075.093-.088.108-.174.218-.26.329-.506.656-.304 1.589.391 2.04l.056.037c.664.431 1.563.214 2.054-.406zM13.466 55.13a1.51 1.51 0 0 0-.844-1.882l-.048-.02c-.763-.32-1.648.037-1.911.822l-.12.367c-.247.79.255 1.602 1.06 1.795l.051.012c.778.186 1.564-.334 1.812-1.095zM12.5 60.927c.025-.818-.579-1.542-1.394-1.618-.824-.078-1.569.527-1.6 1.355a27.13 27.13 0 0 0-.005.169 1.5 1.5 0 0 0 2.998.094zM22.975 52.03c.665.493.798 1.43.384 2.148l-.07.123c-.406.721-1.285 1.067-2.042.73-.757-.338-1.103-1.229-.708-1.957.13-.24.263-.47.397-.693.429-.71 1.374-.846 2.039-.352zM20.102 58.297c.8.215 1.27 1.038 1.1 1.849l-.058.288c-.161.812-.919 1.38-1.738 1.26-.82-.122-1.39-.885-1.233-1.698.04-.214.084-.424.128-.632.174-.81 1-1.283 1.8-1.067zM19.063 65.141c.827.046 1.458.754 1.44 1.582a35.8 35.8 0 0 0-.003.183 1.5 1.5 0 0 1-3-.052l.006-.297c.02-.829.73-1.462 1.557-1.416z" fill="#21a8e4" data-original="#21a8e4"></path></g></g></svg>